<svg width="72" height="72" viewBox="0 0 72 72" fill="none" xmlns="http://www.w3.org/2000/svg">
<rect x="4" y="4" width="64" height="64" rx="6" fill="#22C55E"/>
<path d="M41 45.6299H29C28.2044 45.6299 27.4413 45.3138 26.8787 44.7512C26.3161 44.1886 26 43.4255 26 42.6299V34.6299C26 34.3647 25.8946 34.1103 25.7071 33.9228C25.5196 33.7352 25.2652 33.6299 25 33.6299C24.7348 33.6299 24.4804 33.7352 24.2929 33.9228C24.1054 34.1103 24 34.3647 24 34.6299V42.6299C24 43.956 24.5268 45.2277 25.4645 46.1654C26.4021 47.1031 27.6739 47.6299 29 47.6299H41C41.2652 47.6299 41.5196 47.5245 41.7071 47.337C41.8946 47.1495 42 46.8951 42 46.6299C42 46.3647 41.8946 46.1103 41.7071 45.9228C41.5196 45.7352 41.2652 45.6299 41 45.6299ZM45 27.6299H31C30.2044 27.6299 29.4413 27.946 28.8787 28.5086C28.3161 29.0712 28 29.8342 28 30.6299V40.6299C28 41.4255 28.3161 42.1886 28.8787 42.7512C29.4413 43.3138 30.2044 43.6299 31 43.6299H45C45.7956 43.6299 46.5587 43.3138 47.1213 42.7512C47.6839 42.1886 48 41.4255 48 40.6299V30.6299C48 29.8342 47.6839 29.0712 47.1213 28.5086C46.5587 27.946 45.7956 27.6299 45 27.6299ZM44.59 29.6299L38.71 35.5099C38.617 35.6036 38.5064 35.678 38.3846 35.7288C38.2627 35.7795 38.132 35.8057 38 35.8057C37.868 35.8057 37.7373 35.7795 37.6154 35.7288C37.4936 35.678 37.383 35.6036 37.29 35.5099L31.41 29.6299H44.59ZM46 40.6299C46 40.8951 45.8946 41.1495 45.7071 41.337C45.5196 41.5245 45.2652 41.6299 45 41.6299H31C30.7348 41.6299 30.4804 41.5245 30.2929 41.337C30.1054 41.1495 30 40.8951 30 40.6299V30.9999L35.88 36.8799C36.4425 37.4417 37.205 37.7572 38 37.7572C38.795 37.7572 39.5575 37.4417 40.12 36.8799L46 30.9999V40.6299Z" fill="white"/>
</svg>
