<svg width="72" height="72" viewBox="0 0 72 72" fill="none" xmlns="http://www.w3.org/2000/svg">
<rect x="4" y="4" width="64" height="64" rx="6" fill="#22C55E"/>
<path d="M36.3 36.22C36.8336 35.7581 37.2616 35.1869 37.5549 34.545C37.8482 33.9032 38 33.2057 38 32.5C38 31.1739 37.4732 29.9021 36.5355 28.9645C35.5979 28.0268 34.3261 27.5 33 27.5C31.6739 27.5 30.4021 28.0268 29.4645 28.9645C28.5268 29.9021 28 31.1739 28 32.5C28 33.2057 28.1518 33.9032 28.4451 34.545C28.7384 35.1869 29.1664 35.7581 29.7 36.22C28.3001 36.8539 27.1125 37.8775 26.279 39.1685C25.4455 40.4596 25.0015 41.9633 25 43.5C25 43.7652 25.1054 44.0196 25.2929 44.2071C25.4804 44.3946 25.7348 44.5 26 44.5C26.2652 44.5 26.5196 44.3946 26.7071 44.2071C26.8946 44.0196 27 43.7652 27 43.5C27 41.9087 27.6321 40.3826 28.7574 39.2574C29.8826 38.1321 31.4087 37.5 33 37.5C34.5913 37.5 36.1174 38.1321 37.2426 39.2574C38.3679 40.3826 39 41.9087 39 43.5C39 43.7652 39.1054 44.0196 39.2929 44.2071C39.4804 44.3946 39.7348 44.5 40 44.5C40.2652 44.5 40.5196 44.3946 40.7071 44.2071C40.8946 44.0196 41 43.7652 41 43.5C40.9985 41.9633 40.5545 40.4596 39.721 39.1685C38.8875 37.8775 37.6999 36.8539 36.3 36.22ZM33 35.5C32.4067 35.5 31.8266 35.3241 31.3333 34.9944C30.8399 34.6648 30.4554 34.1962 30.2284 33.6481C30.0013 33.0999 29.9419 32.4967 30.0576 31.9147C30.1734 31.3328 30.4591 30.7982 30.8787 30.3787C31.2982 29.9591 31.8328 29.6734 32.4147 29.5576C32.9967 29.4419 33.5999 29.5013 34.1481 29.7284C34.6962 29.9554 35.1648 30.3399 35.4944 30.8333C35.8241 31.3266 36 31.9067 36 32.5C36 33.2956 35.6839 34.0587 35.1213 34.6213C34.5587 35.1839 33.7956 35.5 33 35.5ZM42.74 35.82C43.38 35.0993 43.798 34.2091 43.9438 33.2563C44.0896 32.3036 43.9569 31.3291 43.5618 30.45C43.1666 29.5709 42.5258 28.8248 41.7165 28.3014C40.9071 27.7781 39.9638 27.4997 39 27.5C38.7348 27.5 38.4804 27.6054 38.2929 27.7929C38.1054 27.9804 38 28.2348 38 28.5C38 28.7652 38.1054 29.0196 38.2929 29.2071C38.4804 29.3946 38.7348 29.5 39 29.5C39.7956 29.5 40.5587 29.8161 41.1213 30.3787C41.6839 30.9413 42 31.7044 42 32.5C41.9986 33.0252 41.8593 33.5409 41.5961 33.9954C41.3328 34.4499 40.9549 34.8274 40.5 35.09C40.3517 35.1755 40.2279 35.2977 40.1404 35.4447C40.0528 35.5918 40.0045 35.7589 40 35.93C39.9958 36.0998 40.0349 36.2678 40.1137 36.4183C40.1924 36.5687 40.3081 36.6967 40.45 36.79L40.84 37.05L40.97 37.12C42.1754 37.6917 43.1923 38.596 43.901 39.7263C44.6096 40.8566 44.9805 42.1659 44.97 43.5C44.97 43.7652 45.0754 44.0196 45.2629 44.2071C45.4504 44.3946 45.7048 44.5 45.97 44.5C46.2352 44.5 46.4896 44.3946 46.6771 44.2071C46.8646 44.0196 46.97 43.7652 46.97 43.5C46.9782 41.9654 46.5938 40.4543 45.8535 39.1101C45.1131 37.7659 44.0413 36.6333 42.74 35.82Z" fill="white"/>
</svg>
