<svg width="72" height="72" viewBox="0 0 72 72" fill="none" xmlns="http://www.w3.org/2000/svg">
<circle cx="36" cy="36" r="32" fill="#DCFCE7"/>
<rect x="4" y="4" width="64" height="64" rx="6" fill="#22C55E"/>
<path d="M45.7099 31.2899C45.617 31.1962 45.5064 31.1218 45.3845 31.071C45.2627 31.0203 45.132 30.9941 44.9999 30.9941C44.8679 30.9941 44.7372 31.0203 44.6154 31.071C44.4935 31.1218 44.3829 31.1962 44.2899 31.2899L37.9999 37.5899L33.7099 33.2899C33.617 33.1962 33.5064 33.1218 33.3845 33.071C33.2627 33.0203 33.132 32.9941 32.9999 32.9941C32.8679 32.9941 32.7372 33.0203 32.6154 33.071C32.4935 33.1218 32.3829 33.1962 32.2899 33.2899L26.2899 39.2899C26.1962 39.3829 26.1218 39.4935 26.071 39.6154C26.0203 39.7372 25.9941 39.8679 25.9941 39.9999C25.9941 40.132 26.0203 40.2627 26.071 40.3845C26.1218 40.5064 26.1962 40.617 26.2899 40.7099C26.3829 40.8037 26.4935 40.8781 26.6154 40.9288C26.7372 40.9796 26.8679 41.0057 26.9999 41.0057C27.132 41.0057 27.2627 40.9796 27.3845 40.9288C27.5064 40.8781 27.617 40.8037 27.7099 40.7099L32.9999 35.4099L37.2899 39.7099C37.3829 39.8037 37.4935 39.8781 37.6154 39.9288C37.7372 39.9796 37.8679 40.0057 37.9999 40.0057C38.132 40.0057 38.2627 39.9796 38.3845 39.9288C38.5064 39.8781 38.617 39.8037 38.7099 39.7099L45.7099 32.7099C45.8037 32.617 45.8781 32.5064 45.9288 32.3845C45.9796 32.2627 46.0057 32.132 46.0057 31.9999C46.0057 31.8679 45.9796 31.7372 45.9288 31.6154C45.8781 31.4935 45.8037 31.3829 45.7099 31.2899Z" fill="white"/>
</svg>
