<svg id="White_Logo" data-name="White Logo" xmlns="http://www.w3.org/2000/svg" viewBox="0 0 338.66 96"><defs><style>.cls-1{fill:#fff;}</style></defs><polygon class="cls-1" points="36.68 54.33 11.81 54.33 11.81 80.53 0 80.53 0 15.89 11.81 15.89 11.81 42.97 36.68 42.97 36.68 15.89 48.48 15.89 48.48 80.53 36.68 80.53 36.68 54.33"/><path class="cls-1" d="M102.05,75.67a9.77,9.77,0,0,1-19.54,0V48H71.33V75.67a21,21,0,0,0,41.9,0V48H102.05Z" transform="translate(-15.78 -16.03)"/><path class="cls-1" d="M185,50.83c0-5.67,3.76-7.47,7.88-7.47,3.31,0,7.69,2.52,10.55,5.58l7.33-8.64c-3.66-4.95-11.09-8.38-17.17-8.38-12.17,0-20.93,7.12-20.93,18.91,0,21.88,26.75,15,26.75,27.2,0,3.78-3.67,7.11-7.87,7.11-6.62,0-8.77-3.24-11.81-6.66l-8.14,8.46c5.19,6.39,11.63,9.64,19.32,9.64,11.54,0,20.84-7.21,20.84-18.46C211.77,53.8,185,61.37,185,50.83Z" transform="translate(-15.78 -16.03)"/><path class="cls-1" d="M350.5,86.23c-6.62,0-8.5-2.86-8.5-7.24V59.58h10.29V49.74H342v-13l-11.35,5.1V81.4c0,10.11,7,15.21,16.54,15.21a23.48,23.48,0,0,0,4.48-.35l2.77-10.2C353.19,86.15,351.76,86.23,350.5,86.23Z" transform="translate(-15.78 -16.03)"/><path class="cls-1" d="M144.67,48.31a17.17,17.17,0,0,0-13.15,5.28V32.31H120.3V71.74C120.3,86.5,131,96.61,143,96.61c13.33,0,25-10.28,25-24.15C168,58.77,157.2,48.31,144.67,48.31Zm-.07,37A12.72,12.72,0,1,1,157.33,72.6,12.72,12.72,0,0,1,144.6,85.32Z" transform="translate(-15.78 -16.03)"/><path class="cls-1" d="M266.46,71.88c0-13.86-11.68-24.15-25-24.15-12,0-22.66,10.11-22.66,24.87V112H230V90.75A17.19,17.19,0,0,0,243.17,96C255.69,96,266.46,85.57,266.46,71.88Zm-10.64-.14A12.73,12.73,0,1,1,243.1,59,12.72,12.72,0,0,1,255.82,71.74Z" transform="translate(-15.78 -16.03)"/><path class="cls-1" d="M302.71,47.18V35.92a8.68,8.68,0,0,0,5-7.82v-.26a8.69,8.69,0,0,0-8.66-8.67h-.26a8.69,8.69,0,0,0-8.67,8.67v.26a8.67,8.67,0,0,0,5,7.82V47.18a24.75,24.75,0,0,0-11.69,5.14L252.5,28.26a9.4,9.4,0,0,0,.35-2.44,9.89,9.89,0,1,0-5,8.45L278.32,58a24.64,24.64,0,0,0,.37,27.79L269.44,95a7.91,7.91,0,0,0-2.3-.37,8,8,0,1,0,8,8,7.9,7.9,0,0,0-.37-2.29L284,91.2a24.69,24.69,0,1,0,18.75-44Zm-3.79,37.06a12.67,12.67,0,1,1,12.67-12.67A12.67,12.67,0,0,1,298.92,84.24Z" transform="translate(-15.78 -16.03)"/></svg>